<svg xmlns="http://www.w3.org/2000/svg" width="160" height="160" viewBox="0 0 160 160" role="img" aria-label="贝壳"><g fill="none" stroke="#356961" stroke-width="2.8" stroke-linecap="round" stroke-linejoin="round"><path d="M80 126C71 116 61 111 45 105C21 97 20 79 30 66C26 48 41 34 58 37C68 22 91 23 102 38C121 34 137 48 130 66C143 81 137 99 115 105C100 110 90 118 80 126Z" fill="#ddb47a" fill-opacity=".12"/><path d="M80 122C77 94 77 64 79 35M75 119C64 95 54 69 54 45M70 116C56 103 38 84 36 70M86 119C98 92 104 68 106 45M92 115C110 98 121 84 126 70" stroke="#d5a463" stroke-width="2.2"/><path d="M59 119Q79 137 101 119M61 113Q80 122 99 113"/><path d="M26 115h7M22 123h4M130 117h7" stroke="#d5a463" stroke-width="2"/></g></svg>