<svg xmlns="http://www.w3.org/2000/svg" width="160" height="160" viewBox="0 0 160 160" role="img" aria-label="罗盘"><g fill="none" stroke="#356961" stroke-width="2.8" stroke-linecap="round" stroke-linejoin="round"><circle cx="80" cy="81" r="48" fill="#7ba99c" fill-opacity=".08"/><circle cx="80" cy="81" r="39" stroke="#d5a463" stroke-width="1.8"/><path d="M80 33v10M80 119v10M32 81h10M118 81h10M46 47l7 7M107 108l7 7M46 115l7-7M107 54l7-7"/><path d="M80 43L94 95L80 86L66 95Z" fill="#d5a463" stroke="#d5a463"/><path d="M80 119L66 67L80 76L94 67Z" fill="#edf1de"/><circle cx="80" cy="81" r="5" fill="#f7e9c8" stroke="#356961" stroke-width="2"/><path d="M70 26v-5h20v5M77 21v-7h6v7" stroke-width="2.2"/><path d="M20 77h-4M140 87h4" stroke="#d5a463"/></g></svg>