<svg xmlns="http://www.w3.org/2000/svg" width="512" height="512" viewBox="0 0 512 512"><defs><linearGradient id="sea" x1="0" y1="0" x2="1" y2="1"><stop stop-color="#295f59"/><stop offset="1" stop-color="#102f34"/></linearGradient><linearGradient id="tower" x1="0" y1="0" x2="1" y2="0"><stop stop-color="#f4e5bc"/><stop offset="1" stop-color="#c5b887"/></linearGradient><radialGradient id="lantern"><stop stop-color="#fff5c6"/><stop offset="1" stop-color="#edba63"/></radialGradient></defs><rect width="512" height="512" rx="108" fill="url(#sea)"/><rect x="18" y="18" width="476" height="476" rx="94" fill="none" stroke="#e7c78d" stroke-opacity=".18" stroke-width="2"/><circle cx="256" cy="233" r="144" fill="#e7bc72" fill-opacity=".06"/><path d="M230 171L70 106V213Z" fill="#f8d68c" fill-opacity=".14"/><path d="M282 171L442 106V213Z" fill="#f8d68c" fill-opacity=".2"/><path d="M74 397Q140 356 197 375Q246 343 314 373Q376 354 438 406L438 432H74Z" fill="#204a44"/><path d="M224 207L200 386H312L286 207Z" fill="url(#tower)" stroke="#f6e6ba" stroke-width="3"/><path d="M215 269L295 250V280L211 300ZM206 336L303 312L307 342L202 367Z" fill="#d5a15f" fill-opacity=".62"/><path d="M244 386V349Q244 334 257 334Q270 334 270 349V386Z" fill="#24534d" stroke="#afaa7d" stroke-width="2"/><rect x="248" y="231" width="17" height="26" rx="8" fill="#fff0b9" stroke="#b59b65" stroke-width="2"/><rect x="213" y="163" width="87" height="57" rx="4" fill="url(#lantern)" stroke="#f3d391" stroke-width="3"/><path d="M208 163L256 120L307 163Z" fill="#d3a15c" stroke="#f0cd8b" stroke-width="3" stroke-linejoin="round"/><path d="M256 111V120M232 169v45M254 169v45M276 169v45" stroke="#ab7a3f" stroke-width="4" stroke-linecap="round"/><path d="M199 220H314M198 236H315M205 220v16M225 220v16M247 220v16M269 220v16M291 220v16M311 220v16" fill="none" stroke="#e4bd78" stroke-width="4" stroke-linecap="round"/><path d="M194 390H320" stroke="#f0d8a5" stroke-width="6" stroke-linecap="round"/><path d="M71 416Q98 403 125 416T179 416T233 416T287 416T341 416T395 416T449 416M105 441Q132 428 159 441T213 441T267 441T321 441T375 441" fill="none" stroke="#7da596" stroke-width="4" stroke-linecap="round"/><path d="M99 278q13-13 25 0q13-13 26 0M360 293q10-10 20 0q10-10 20 0" fill="none" stroke="#d9ce9f" stroke-opacity=".7" stroke-width="3" stroke-linecap="round"/></svg>